<mxfile host="app.diagrams.net" agent="Mozilla/5.0 (Windows NT 10.0; Win64; x64) AppleWebKit/537.36 (KHTML, like Gecko) Chrome/131.0.0.0 Safari/537.36" version="24.8.6" pages="2">
  <diagram name="Страница — 1" id="yzbeZudagbicSkmYldQ3">
    <mxGraphModel dx="2062" dy="1824" grid="1" gridSize="10" guides="1" tooltips="1" connect="1" arrows="1" fold="1" page="1" pageScale="1" pageWidth="827" pageHeight="1169" math="0" shadow="0">
      <root>
        <mxCell id="0" />
        <mxCell id="1" parent="0" />
        <mxCell id="HGFRI980bRaROSp2wKFC-54" value="" style="rounded=0;whiteSpace=wrap;html=1;" vertex="1" parent="1">
          <mxGeometry x="90" y="500" width="790" height="260" as="geometry" />
        </mxCell>
        <mxCell id="HGFRI980bRaROSp2wKFC-25" value="" style="group" vertex="1" connectable="0" parent="1">
          <mxGeometry x="210" y="585" width="180" height="90" as="geometry" />
        </mxCell>
        <mxCell id="HGFRI980bRaROSp2wKFC-15" value="PaymentService" style="html=1;dropTarget=0;whiteSpace=wrap;" vertex="1" parent="HGFRI980bRaROSp2wKFC-25">
          <mxGeometry width="180" height="90" as="geometry" />
        </mxCell>
        <mxCell id="HGFRI980bRaROSp2wKFC-16" value="" style="shape=module;jettyWidth=8;jettyHeight=4;" vertex="1" parent="HGFRI980bRaROSp2wKFC-15">
          <mxGeometry x="1" width="20" height="20" relative="1" as="geometry">
            <mxPoint x="-27" y="7" as="offset" />
          </mxGeometry>
        </mxCell>
        <mxCell id="HGFRI980bRaROSp2wKFC-24" value="&lt;b&gt;KaspiPay&lt;/b&gt;" style="text;html=1;align=center;verticalAlign=middle;resizable=0;points=[];autosize=1;strokeColor=none;fillColor=none;" vertex="1" parent="HGFRI980bRaROSp2wKFC-25">
          <mxGeometry x="80" width="80" height="30" as="geometry" />
        </mxCell>
        <mxCell id="HGFRI980bRaROSp2wKFC-26" value="" style="rounded=0;orthogonalLoop=1;jettySize=auto;html=1;endArrow=halfCircle;endFill=0;endSize=6;strokeWidth=1;sketch=0;exitX=0.5;exitY=1;exitDx=0;exitDy=0;" edge="1" target="HGFRI980bRaROSp2wKFC-28" parent="1" source="HGFRI980bRaROSp2wKFC-10">
          <mxGeometry relative="1" as="geometry">
            <mxPoint x="430" y="430" as="sourcePoint" />
          </mxGeometry>
        </mxCell>
        <mxCell id="HGFRI980bRaROSp2wKFC-35" value="IPayment" style="edgeLabel;html=1;align=center;verticalAlign=middle;resizable=0;points=[];" vertex="1" connectable="0" parent="HGFRI980bRaROSp2wKFC-26">
          <mxGeometry x="0.0765" y="-3" relative="1" as="geometry">
            <mxPoint as="offset" />
          </mxGeometry>
        </mxCell>
        <mxCell id="HGFRI980bRaROSp2wKFC-27" value="" style="rounded=0;orthogonalLoop=1;jettySize=auto;html=1;endArrow=oval;endFill=0;sketch=0;sourcePerimeterSpacing=0;targetPerimeterSpacing=0;endSize=10;exitX=0.376;exitY=-0.02;exitDx=0;exitDy=0;exitPerimeter=0;" edge="1" target="HGFRI980bRaROSp2wKFC-28" parent="1" source="HGFRI980bRaROSp2wKFC-15">
          <mxGeometry relative="1" as="geometry">
            <mxPoint x="110" y="425" as="sourcePoint" />
          </mxGeometry>
        </mxCell>
        <mxCell id="HGFRI980bRaROSp2wKFC-34" value="IPayment" style="edgeLabel;html=1;align=center;verticalAlign=middle;resizable=0;points=[];" vertex="1" connectable="0" parent="HGFRI980bRaROSp2wKFC-27">
          <mxGeometry x="-0.2344" y="3" relative="1" as="geometry">
            <mxPoint as="offset" />
          </mxGeometry>
        </mxCell>
        <mxCell id="HGFRI980bRaROSp2wKFC-28" value="" style="ellipse;whiteSpace=wrap;html=1;align=center;aspect=fixed;fillColor=none;strokeColor=none;resizable=0;perimeter=centerPerimeter;rotatable=0;allowArrows=0;points=[];outlineConnect=1;" vertex="1" parent="1">
          <mxGeometry x="350" y="490" width="10" height="10" as="geometry" />
        </mxCell>
        <mxCell id="HGFRI980bRaROSp2wKFC-30" value="" style="rounded=0;orthogonalLoop=1;jettySize=auto;html=1;endArrow=oval;endFill=0;sketch=0;sourcePerimeterSpacing=0;targetPerimeterSpacing=0;endSize=10;exitX=0.431;exitY=-0.038;exitDx=0;exitDy=0;exitPerimeter=0;" edge="1" target="HGFRI980bRaROSp2wKFC-31" parent="1" source="HGFRI980bRaROSp2wKFC-17">
          <mxGeometry relative="1" as="geometry">
            <mxPoint x="540" y="550" as="sourcePoint" />
          </mxGeometry>
        </mxCell>
        <mxCell id="HGFRI980bRaROSp2wKFC-36" value="INotification" style="edgeLabel;html=1;align=center;verticalAlign=middle;resizable=0;points=[];" vertex="1" connectable="0" parent="HGFRI980bRaROSp2wKFC-30">
          <mxGeometry x="-0.27" relative="1" as="geometry">
            <mxPoint as="offset" />
          </mxGeometry>
        </mxCell>
        <mxCell id="HGFRI980bRaROSp2wKFC-31" value="" style="ellipse;whiteSpace=wrap;html=1;align=center;aspect=fixed;fillColor=none;strokeColor=none;resizable=0;perimeter=centerPerimeter;rotatable=0;allowArrows=0;points=[];outlineConnect=1;" vertex="1" parent="1">
          <mxGeometry x="580" y="490" width="10" height="10" as="geometry" />
        </mxCell>
        <mxCell id="HGFRI980bRaROSp2wKFC-29" value="" style="rounded=0;orthogonalLoop=1;jettySize=auto;html=1;endArrow=halfCircle;endFill=0;endSize=6;strokeWidth=1;sketch=0;exitX=0.527;exitY=0.995;exitDx=0;exitDy=0;exitPerimeter=0;entryX=0.2;entryY=0.1;entryDx=0;entryDy=0;entryPerimeter=0;" edge="1" target="HGFRI980bRaROSp2wKFC-31" parent="1" source="HGFRI980bRaROSp2wKFC-10">
          <mxGeometry relative="1" as="geometry">
            <mxPoint x="630" y="485" as="sourcePoint" />
          </mxGeometry>
        </mxCell>
        <mxCell id="HGFRI980bRaROSp2wKFC-37" value="iNotification" style="edgeLabel;html=1;align=center;verticalAlign=middle;resizable=0;points=[];" vertex="1" connectable="0" parent="HGFRI980bRaROSp2wKFC-29">
          <mxGeometry x="-0.5351" y="-1" relative="1" as="geometry">
            <mxPoint as="offset" />
          </mxGeometry>
        </mxCell>
        <mxCell id="HGFRI980bRaROSp2wKFC-39" value="" style="group" vertex="1" connectable="0" parent="1">
          <mxGeometry x="550" y="585" width="180" height="90" as="geometry" />
        </mxCell>
        <mxCell id="HGFRI980bRaROSp2wKFC-17" value="NotificationService" style="html=1;dropTarget=0;whiteSpace=wrap;" vertex="1" parent="HGFRI980bRaROSp2wKFC-39">
          <mxGeometry width="180" height="90" as="geometry" />
        </mxCell>
        <mxCell id="HGFRI980bRaROSp2wKFC-18" value="" style="shape=module;jettyWidth=8;jettyHeight=4;" vertex="1" parent="HGFRI980bRaROSp2wKFC-17">
          <mxGeometry x="1" width="20" height="20" relative="1" as="geometry">
            <mxPoint x="-27" y="7" as="offset" />
          </mxGeometry>
        </mxCell>
        <mxCell id="HGFRI980bRaROSp2wKFC-19" value="&lt;b&gt;EDNA&lt;/b&gt;" style="text;html=1;align=center;verticalAlign=middle;resizable=0;points=[];autosize=1;strokeColor=none;fillColor=none;" vertex="1" parent="HGFRI980bRaROSp2wKFC-39">
          <mxGeometry x="100" width="60" height="30" as="geometry" />
        </mxCell>
        <mxCell id="HGFRI980bRaROSp2wKFC-50" value="" style="rounded=0;orthogonalLoop=1;jettySize=auto;html=1;endArrow=halfCircle;endFill=0;endSize=6;strokeWidth=1;sketch=0;exitX=1;exitY=0.5;exitDx=0;exitDy=0;" edge="1" target="HGFRI980bRaROSp2wKFC-52" parent="1" source="HGFRI980bRaROSp2wKFC-1">
          <mxGeometry relative="1" as="geometry">
            <mxPoint x="330" y="185" as="sourcePoint" />
          </mxGeometry>
        </mxCell>
        <mxCell id="HGFRI980bRaROSp2wKFC-53" value="IProcessOrder" style="edgeLabel;html=1;align=center;verticalAlign=middle;resizable=0;points=[];" vertex="1" connectable="0" parent="HGFRI980bRaROSp2wKFC-50">
          <mxGeometry x="-0.4931" relative="1" as="geometry">
            <mxPoint as="offset" />
          </mxGeometry>
        </mxCell>
        <mxCell id="HGFRI980bRaROSp2wKFC-51" value="" style="rounded=0;orthogonalLoop=1;jettySize=auto;html=1;endArrow=oval;endFill=0;sketch=0;sourcePerimeterSpacing=0;targetPerimeterSpacing=0;endSize=10;exitX=-0.008;exitY=0.568;exitDx=0;exitDy=0;exitPerimeter=0;" edge="1" target="HGFRI980bRaROSp2wKFC-52" parent="1" source="HGFRI980bRaROSp2wKFC-10">
          <mxGeometry relative="1" as="geometry">
            <mxPoint x="290" y="185" as="sourcePoint" />
          </mxGeometry>
        </mxCell>
        <mxCell id="HGFRI980bRaROSp2wKFC-52" value="" style="ellipse;whiteSpace=wrap;html=1;align=center;aspect=fixed;fillColor=none;strokeColor=none;resizable=0;perimeter=centerPerimeter;rotatable=0;allowArrows=0;points=[];outlineConnect=1;" vertex="1" parent="1">
          <mxGeometry x="290" y="190" width="10" height="10" as="geometry" />
        </mxCell>
        <mxCell id="HGFRI980bRaROSp2wKFC-55" value="" style="ellipse;shape=cloud;whiteSpace=wrap;html=1;" vertex="1" parent="1">
          <mxGeometry x="250" y="-260" width="120" height="80" as="geometry" />
        </mxCell>
        <mxCell id="HGFRI980bRaROSp2wKFC-56" value="Actor" style="shape=umlActor;verticalLabelPosition=bottom;verticalAlign=top;html=1;outlineConnect=0;" vertex="1" parent="1">
          <mxGeometry x="50" y="-250" width="30" height="60" as="geometry" />
        </mxCell>
        <mxCell id="HGFRI980bRaROSp2wKFC-65" style="edgeStyle=orthogonalEdgeStyle;rounded=0;orthogonalLoop=1;jettySize=auto;html=1;entryX=0.5;entryY=0;entryDx=0;entryDy=0;" edge="1" parent="1" source="HGFRI980bRaROSp2wKFC-60" target="HGFRI980bRaROSp2wKFC-1">
          <mxGeometry relative="1" as="geometry" />
        </mxCell>
        <mxCell id="HGFRI980bRaROSp2wKFC-60" value="Web" style="html=1;dropTarget=0;whiteSpace=wrap;" vertex="1" parent="1">
          <mxGeometry x="70" y="-10" width="180" height="90" as="geometry" />
        </mxCell>
        <mxCell id="HGFRI980bRaROSp2wKFC-61" value="" style="shape=module;jettyWidth=8;jettyHeight=4;" vertex="1" parent="HGFRI980bRaROSp2wKFC-60">
          <mxGeometry x="1" width="20" height="20" relative="1" as="geometry">
            <mxPoint x="-27" y="7" as="offset" />
          </mxGeometry>
        </mxCell>
        <mxCell id="HGFRI980bRaROSp2wKFC-63" style="edgeStyle=orthogonalEdgeStyle;rounded=0;orthogonalLoop=1;jettySize=auto;html=1;entryX=0.072;entryY=0.515;entryDx=0;entryDy=0;entryPerimeter=0;" edge="1" parent="1" source="HGFRI980bRaROSp2wKFC-56" target="HGFRI980bRaROSp2wKFC-55">
          <mxGeometry relative="1" as="geometry" />
        </mxCell>
        <mxCell id="HGFRI980bRaROSp2wKFC-64" style="edgeStyle=orthogonalEdgeStyle;rounded=0;orthogonalLoop=1;jettySize=auto;html=1;entryX=0.421;entryY=0.022;entryDx=0;entryDy=0;entryPerimeter=0;" edge="1" parent="1" source="HGFRI980bRaROSp2wKFC-55" target="HGFRI980bRaROSp2wKFC-60">
          <mxGeometry relative="1" as="geometry" />
        </mxCell>
        <mxCell id="HGFRI980bRaROSp2wKFC-23" value="" style="group" vertex="1" connectable="0" parent="1">
          <mxGeometry x="350" y="-20" width="296" height="390" as="geometry" />
        </mxCell>
        <mxCell id="HGFRI980bRaROSp2wKFC-10" value="" style="html=1;dropTarget=0;whiteSpace=wrap;" vertex="1" parent="HGFRI980bRaROSp2wKFC-23">
          <mxGeometry width="296" height="380" as="geometry" />
        </mxCell>
        <mxCell id="HGFRI980bRaROSp2wKFC-11" value="" style="shape=module;jettyWidth=8;jettyHeight=4;" vertex="1" parent="HGFRI980bRaROSp2wKFC-10">
          <mxGeometry x="1" width="20" height="20" relative="1" as="geometry">
            <mxPoint x="-27" y="7" as="offset" />
          </mxGeometry>
        </mxCell>
        <mxCell id="HGFRI980bRaROSp2wKFC-21" value="&lt;b&gt;1C&lt;/b&gt;" style="text;html=1;align=center;verticalAlign=middle;resizable=0;points=[];autosize=1;strokeColor=none;fillColor=none;" vertex="1" parent="HGFRI980bRaROSp2wKFC-23">
          <mxGeometry x="220" width="40" height="30" as="geometry" />
        </mxCell>
        <mxCell id="HGFRI980bRaROSp2wKFC-6" value="OrderService" style="html=1;dropTarget=0;whiteSpace=wrap;" vertex="1" parent="HGFRI980bRaROSp2wKFC-23">
          <mxGeometry x="58" y="230" width="180" height="90" as="geometry" />
        </mxCell>
        <mxCell id="HGFRI980bRaROSp2wKFC-7" value="" style="shape=module;jettyWidth=8;jettyHeight=4;" vertex="1" parent="HGFRI980bRaROSp2wKFC-6">
          <mxGeometry x="1" width="20" height="20" relative="1" as="geometry">
            <mxPoint x="-27" y="7" as="offset" />
          </mxGeometry>
        </mxCell>
        <mxCell id="HGFRI980bRaROSp2wKFC-44" style="edgeStyle=orthogonalEdgeStyle;rounded=0;orthogonalLoop=1;jettySize=auto;html=1;" edge="1" parent="HGFRI980bRaROSp2wKFC-23" source="HGFRI980bRaROSp2wKFC-4" target="HGFRI980bRaROSp2wKFC-6">
          <mxGeometry relative="1" as="geometry" />
        </mxCell>
        <mxCell id="HGFRI980bRaROSp2wKFC-4" value="ProductService" style="html=1;dropTarget=0;whiteSpace=wrap;" vertex="1" parent="HGFRI980bRaROSp2wKFC-23">
          <mxGeometry x="58" y="50" width="180" height="90" as="geometry" />
        </mxCell>
        <mxCell id="HGFRI980bRaROSp2wKFC-5" value="" style="shape=module;jettyWidth=8;jettyHeight=4;" vertex="1" parent="HGFRI980bRaROSp2wKFC-4">
          <mxGeometry x="1" width="20" height="20" relative="1" as="geometry">
            <mxPoint x="-27" y="7" as="offset" />
          </mxGeometry>
        </mxCell>
        <mxCell id="HGFRI980bRaROSp2wKFC-41" value="" style="whiteSpace=wrap;html=1;aspect=fixed;" vertex="1" parent="HGFRI980bRaROSp2wKFC-23">
          <mxGeometry x="128" y="350" width="40" height="40" as="geometry" />
        </mxCell>
        <mxCell id="HGFRI980bRaROSp2wKFC-47" value="" style="ellipse;whiteSpace=wrap;html=1;align=center;aspect=fixed;fillColor=none;strokeColor=none;resizable=0;perimeter=centerPerimeter;rotatable=0;allowArrows=0;points=[];outlineConnect=1;" vertex="1" parent="HGFRI980bRaROSp2wKFC-23">
          <mxGeometry x="110" y="180" width="10" height="10" as="geometry" />
        </mxCell>
        <mxCell id="HGFRI980bRaROSp2wKFC-45" value="" style="rounded=0;orthogonalLoop=1;jettySize=auto;html=1;endArrow=halfCircle;endFill=0;endSize=6;strokeWidth=1;sketch=0;exitX=0.5;exitY=0;exitDx=0;exitDy=0;" edge="1" target="HGFRI980bRaROSp2wKFC-47" parent="HGFRI980bRaROSp2wKFC-23" source="HGFRI980bRaROSp2wKFC-6">
          <mxGeometry relative="1" as="geometry">
            <mxPoint x="-80" y="95" as="sourcePoint" />
          </mxGeometry>
        </mxCell>
        <mxCell id="HGFRI980bRaROSp2wKFC-46" value="" style="rounded=0;orthogonalLoop=1;jettySize=auto;html=1;endArrow=oval;endFill=0;sketch=0;sourcePerimeterSpacing=0;targetPerimeterSpacing=0;endSize=10;exitX=0.5;exitY=1;exitDx=0;exitDy=0;" edge="1" target="HGFRI980bRaROSp2wKFC-47" parent="HGFRI980bRaROSp2wKFC-23" source="HGFRI980bRaROSp2wKFC-4">
          <mxGeometry relative="1" as="geometry">
            <mxPoint x="-120" y="95" as="sourcePoint" />
          </mxGeometry>
        </mxCell>
        <mxCell id="HGFRI980bRaROSp2wKFC-68" value="" style="whiteSpace=wrap;html=1;aspect=fixed;" vertex="1" parent="HGFRI980bRaROSp2wKFC-23">
          <mxGeometry x="-20" y="200" width="40" height="40" as="geometry" />
        </mxCell>
        <mxCell id="HGFRI980bRaROSp2wKFC-67" value="" style="group" vertex="1" connectable="0" parent="1">
          <mxGeometry x="-120" y="180" width="190" height="90" as="geometry" />
        </mxCell>
        <mxCell id="HGFRI980bRaROSp2wKFC-1" value="UserService" style="html=1;dropTarget=0;whiteSpace=wrap;" vertex="1" parent="HGFRI980bRaROSp2wKFC-67">
          <mxGeometry width="180" height="90" as="geometry" />
        </mxCell>
        <mxCell id="HGFRI980bRaROSp2wKFC-2" value="" style="shape=module;jettyWidth=8;jettyHeight=4;" vertex="1" parent="HGFRI980bRaROSp2wKFC-1">
          <mxGeometry x="1" width="20" height="20" relative="1" as="geometry">
            <mxPoint x="-27" y="7" as="offset" />
          </mxGeometry>
        </mxCell>
        <mxCell id="HGFRI980bRaROSp2wKFC-66" value="&lt;b&gt;API&lt;/b&gt;" style="text;html=1;align=center;verticalAlign=middle;resizable=0;points=[];autosize=1;strokeColor=none;fillColor=none;" vertex="1" parent="HGFRI980bRaROSp2wKFC-67">
          <mxGeometry x="110" width="40" height="30" as="geometry" />
        </mxCell>
        <mxCell id="HGFRI980bRaROSp2wKFC-69" value="" style="whiteSpace=wrap;html=1;aspect=fixed;" vertex="1" parent="HGFRI980bRaROSp2wKFC-67">
          <mxGeometry x="150" y="40" width="40" height="40" as="geometry" />
        </mxCell>
      </root>
    </mxGraphModel>
  </diagram>
  <diagram id="DQ_EtJ5SZxG42IIQ2t-6" name="Страница — 2">
    <mxGraphModel dx="1702" dy="464" grid="1" gridSize="10" guides="1" tooltips="1" connect="1" arrows="1" fold="1" page="1" pageScale="1" pageWidth="827" pageHeight="1169" math="0" shadow="0">
      <root>
        <mxCell id="0" />
        <mxCell id="1" parent="0" />
        <mxCell id="N2E3WRwGkXzcVlvkMz1M-4" value="&lt;div&gt;&quot;Interface&quot;&lt;/div&gt;IUser" style="html=1;whiteSpace=wrap;" vertex="1" parent="1">
          <mxGeometry x="170" y="130" width="110" height="50" as="geometry" />
        </mxCell>
        <mxCell id="N2E3WRwGkXzcVlvkMz1M-17" style="edgeStyle=orthogonalEdgeStyle;rounded=0;orthogonalLoop=1;jettySize=auto;html=1;entryX=0.5;entryY=1;entryDx=0;entryDy=0;dashed=1;" edge="1" parent="1" source="N2E3WRwGkXzcVlvkMz1M-5" target="N2E3WRwGkXzcVlvkMz1M-4">
          <mxGeometry relative="1" as="geometry" />
        </mxCell>
        <mxCell id="N2E3WRwGkXzcVlvkMz1M-5" value="Librarian" style="swimlane;fontStyle=1;align=center;verticalAlign=top;childLayout=stackLayout;horizontal=1;startSize=26;horizontalStack=0;resizeParent=1;resizeParentMax=0;resizeLast=0;collapsible=1;marginBottom=0;whiteSpace=wrap;html=1;" vertex="1" parent="1">
          <mxGeometry x="270" y="250" width="160" height="86" as="geometry" />
        </mxCell>
        <mxCell id="N2E3WRwGkXzcVlvkMz1M-6" value="+ field: type" style="text;strokeColor=none;fillColor=none;align=left;verticalAlign=top;spacingLeft=4;spacingRight=4;overflow=hidden;rotatable=0;points=[[0,0.5],[1,0.5]];portConstraint=eastwest;whiteSpace=wrap;html=1;" vertex="1" parent="N2E3WRwGkXzcVlvkMz1M-5">
          <mxGeometry y="26" width="160" height="26" as="geometry" />
        </mxCell>
        <mxCell id="N2E3WRwGkXzcVlvkMz1M-7" value="" style="line;strokeWidth=1;fillColor=none;align=left;verticalAlign=middle;spacingTop=-1;spacingLeft=3;spacingRight=3;rotatable=0;labelPosition=right;points=[];portConstraint=eastwest;strokeColor=inherit;" vertex="1" parent="N2E3WRwGkXzcVlvkMz1M-5">
          <mxGeometry y="52" width="160" height="8" as="geometry" />
        </mxCell>
        <mxCell id="N2E3WRwGkXzcVlvkMz1M-8" value="+ method(type): type" style="text;strokeColor=none;fillColor=none;align=left;verticalAlign=top;spacingLeft=4;spacingRight=4;overflow=hidden;rotatable=0;points=[[0,0.5],[1,0.5]];portConstraint=eastwest;whiteSpace=wrap;html=1;" vertex="1" parent="N2E3WRwGkXzcVlvkMz1M-5">
          <mxGeometry y="60" width="160" height="26" as="geometry" />
        </mxCell>
        <mxCell id="N2E3WRwGkXzcVlvkMz1M-16" style="edgeStyle=orthogonalEdgeStyle;rounded=0;orthogonalLoop=1;jettySize=auto;html=1;entryX=0.5;entryY=1;entryDx=0;entryDy=0;dashed=1;" edge="1" parent="1" source="N2E3WRwGkXzcVlvkMz1M-9" target="N2E3WRwGkXzcVlvkMz1M-4">
          <mxGeometry relative="1" as="geometry" />
        </mxCell>
        <mxCell id="N2E3WRwGkXzcVlvkMz1M-47" style="edgeStyle=orthogonalEdgeStyle;rounded=0;orthogonalLoop=1;jettySize=auto;html=1;entryX=0.5;entryY=0;entryDx=0;entryDy=0;endArrow=diamondThin;endFill=0;" edge="1" parent="1" source="N2E3WRwGkXzcVlvkMz1M-9" target="N2E3WRwGkXzcVlvkMz1M-22">
          <mxGeometry relative="1" as="geometry" />
        </mxCell>
        <mxCell id="N2E3WRwGkXzcVlvkMz1M-49" value="1..*" style="edgeLabel;html=1;align=center;verticalAlign=middle;resizable=0;points=[];" vertex="1" connectable="0" parent="N2E3WRwGkXzcVlvkMz1M-47">
          <mxGeometry x="0.8736" y="-2" relative="1" as="geometry">
            <mxPoint as="offset" />
          </mxGeometry>
        </mxCell>
        <mxCell id="N2E3WRwGkXzcVlvkMz1M-9" value="Reader" style="swimlane;fontStyle=1;align=center;verticalAlign=top;childLayout=stackLayout;horizontal=1;startSize=26;horizontalStack=0;resizeParent=1;resizeParentMax=0;resizeLast=0;collapsible=1;marginBottom=0;whiteSpace=wrap;html=1;" vertex="1" parent="1">
          <mxGeometry x="40" y="250" width="160" height="86" as="geometry" />
        </mxCell>
        <mxCell id="N2E3WRwGkXzcVlvkMz1M-10" value="+ field: type" style="text;strokeColor=none;fillColor=none;align=left;verticalAlign=top;spacingLeft=4;spacingRight=4;overflow=hidden;rotatable=0;points=[[0,0.5],[1,0.5]];portConstraint=eastwest;whiteSpace=wrap;html=1;" vertex="1" parent="N2E3WRwGkXzcVlvkMz1M-9">
          <mxGeometry y="26" width="160" height="26" as="geometry" />
        </mxCell>
        <mxCell id="N2E3WRwGkXzcVlvkMz1M-11" value="" style="line;strokeWidth=1;fillColor=none;align=left;verticalAlign=middle;spacingTop=-1;spacingLeft=3;spacingRight=3;rotatable=0;labelPosition=right;points=[];portConstraint=eastwest;strokeColor=inherit;" vertex="1" parent="N2E3WRwGkXzcVlvkMz1M-9">
          <mxGeometry y="52" width="160" height="8" as="geometry" />
        </mxCell>
        <mxCell id="N2E3WRwGkXzcVlvkMz1M-12" value="+ method(type): type" style="text;strokeColor=none;fillColor=none;align=left;verticalAlign=top;spacingLeft=4;spacingRight=4;overflow=hidden;rotatable=0;points=[[0,0.5],[1,0.5]];portConstraint=eastwest;whiteSpace=wrap;html=1;" vertex="1" parent="N2E3WRwGkXzcVlvkMz1M-9">
          <mxGeometry y="60" width="160" height="26" as="geometry" />
        </mxCell>
        <mxCell id="N2E3WRwGkXzcVlvkMz1M-22" value="Library" style="swimlane;fontStyle=1;align=center;verticalAlign=top;childLayout=stackLayout;horizontal=1;startSize=26;horizontalStack=0;resizeParent=1;resizeParentMax=0;resizeLast=0;collapsible=1;marginBottom=0;whiteSpace=wrap;html=1;" vertex="1" parent="1">
          <mxGeometry x="-100" y="486" width="160" height="86" as="geometry" />
        </mxCell>
        <mxCell id="N2E3WRwGkXzcVlvkMz1M-23" value="+ field: type" style="text;strokeColor=none;fillColor=none;align=left;verticalAlign=top;spacingLeft=4;spacingRight=4;overflow=hidden;rotatable=0;points=[[0,0.5],[1,0.5]];portConstraint=eastwest;whiteSpace=wrap;html=1;" vertex="1" parent="N2E3WRwGkXzcVlvkMz1M-22">
          <mxGeometry y="26" width="160" height="26" as="geometry" />
        </mxCell>
        <mxCell id="N2E3WRwGkXzcVlvkMz1M-24" value="" style="line;strokeWidth=1;fillColor=none;align=left;verticalAlign=middle;spacingTop=-1;spacingLeft=3;spacingRight=3;rotatable=0;labelPosition=right;points=[];portConstraint=eastwest;strokeColor=inherit;" vertex="1" parent="N2E3WRwGkXzcVlvkMz1M-22">
          <mxGeometry y="52" width="160" height="8" as="geometry" />
        </mxCell>
        <mxCell id="N2E3WRwGkXzcVlvkMz1M-25" value="+ method(type): type" style="text;strokeColor=none;fillColor=none;align=left;verticalAlign=top;spacingLeft=4;spacingRight=4;overflow=hidden;rotatable=0;points=[[0,0.5],[1,0.5]];portConstraint=eastwest;whiteSpace=wrap;html=1;" vertex="1" parent="N2E3WRwGkXzcVlvkMz1M-22">
          <mxGeometry y="60" width="160" height="26" as="geometry" />
        </mxCell>
        <mxCell id="N2E3WRwGkXzcVlvkMz1M-61" style="edgeStyle=orthogonalEdgeStyle;rounded=0;orthogonalLoop=1;jettySize=auto;html=1;entryX=0;entryY=0.25;entryDx=0;entryDy=0;endArrow=diamondThin;endFill=1;" edge="1" parent="1" source="N2E3WRwGkXzcVlvkMz1M-26" target="N2E3WRwGkXzcVlvkMz1M-22">
          <mxGeometry relative="1" as="geometry" />
        </mxCell>
        <mxCell id="N2E3WRwGkXzcVlvkMz1M-62" value="*..1" style="edgeLabel;html=1;align=center;verticalAlign=middle;resizable=0;points=[];" vertex="1" connectable="0" parent="N2E3WRwGkXzcVlvkMz1M-61">
          <mxGeometry x="0.8203" y="-1" relative="1" as="geometry">
            <mxPoint as="offset" />
          </mxGeometry>
        </mxCell>
        <mxCell id="N2E3WRwGkXzcVlvkMz1M-26" value="Books" style="swimlane;fontStyle=1;align=center;verticalAlign=top;childLayout=stackLayout;horizontal=1;startSize=26;horizontalStack=0;resizeParent=1;resizeParentMax=0;resizeLast=0;collapsible=1;marginBottom=0;whiteSpace=wrap;html=1;" vertex="1" parent="1">
          <mxGeometry x="-250" y="230" width="160" height="86" as="geometry" />
        </mxCell>
        <mxCell id="N2E3WRwGkXzcVlvkMz1M-27" value="+ field: type" style="text;strokeColor=none;fillColor=none;align=left;verticalAlign=top;spacingLeft=4;spacingRight=4;overflow=hidden;rotatable=0;points=[[0,0.5],[1,0.5]];portConstraint=eastwest;whiteSpace=wrap;html=1;" vertex="1" parent="N2E3WRwGkXzcVlvkMz1M-26">
          <mxGeometry y="26" width="160" height="26" as="geometry" />
        </mxCell>
        <mxCell id="N2E3WRwGkXzcVlvkMz1M-28" value="" style="line;strokeWidth=1;fillColor=none;align=left;verticalAlign=middle;spacingTop=-1;spacingLeft=3;spacingRight=3;rotatable=0;labelPosition=right;points=[];portConstraint=eastwest;strokeColor=inherit;" vertex="1" parent="N2E3WRwGkXzcVlvkMz1M-26">
          <mxGeometry y="52" width="160" height="8" as="geometry" />
        </mxCell>
        <mxCell id="N2E3WRwGkXzcVlvkMz1M-29" value="+ method(type): type" style="text;strokeColor=none;fillColor=none;align=left;verticalAlign=top;spacingLeft=4;spacingRight=4;overflow=hidden;rotatable=0;points=[[0,0.5],[1,0.5]];portConstraint=eastwest;whiteSpace=wrap;html=1;" vertex="1" parent="N2E3WRwGkXzcVlvkMz1M-26">
          <mxGeometry y="60" width="160" height="26" as="geometry" />
        </mxCell>
        <mxCell id="N2E3WRwGkXzcVlvkMz1M-39" value="Order&lt;div&gt;&lt;br&gt;&lt;/div&gt;" style="swimlane;fontStyle=1;align=center;verticalAlign=top;childLayout=stackLayout;horizontal=1;startSize=26;horizontalStack=0;resizeParent=1;resizeParentMax=0;resizeLast=0;collapsible=1;marginBottom=0;whiteSpace=wrap;html=1;" vertex="1" parent="1">
          <mxGeometry x="370" y="450" width="160" height="86" as="geometry" />
        </mxCell>
        <mxCell id="N2E3WRwGkXzcVlvkMz1M-40" value="+ field: type" style="text;strokeColor=none;fillColor=none;align=left;verticalAlign=top;spacingLeft=4;spacingRight=4;overflow=hidden;rotatable=0;points=[[0,0.5],[1,0.5]];portConstraint=eastwest;whiteSpace=wrap;html=1;" vertex="1" parent="N2E3WRwGkXzcVlvkMz1M-39">
          <mxGeometry y="26" width="160" height="26" as="geometry" />
        </mxCell>
        <mxCell id="N2E3WRwGkXzcVlvkMz1M-41" value="" style="line;strokeWidth=1;fillColor=none;align=left;verticalAlign=middle;spacingTop=-1;spacingLeft=3;spacingRight=3;rotatable=0;labelPosition=right;points=[];portConstraint=eastwest;strokeColor=inherit;" vertex="1" parent="N2E3WRwGkXzcVlvkMz1M-39">
          <mxGeometry y="52" width="160" height="8" as="geometry" />
        </mxCell>
        <mxCell id="N2E3WRwGkXzcVlvkMz1M-42" value="+ method(type): type" style="text;strokeColor=none;fillColor=none;align=left;verticalAlign=top;spacingLeft=4;spacingRight=4;overflow=hidden;rotatable=0;points=[[0,0.5],[1,0.5]];portConstraint=eastwest;whiteSpace=wrap;html=1;" vertex="1" parent="N2E3WRwGkXzcVlvkMz1M-39">
          <mxGeometry y="60" width="160" height="26" as="geometry" />
        </mxCell>
        <mxCell id="N2E3WRwGkXzcVlvkMz1M-43" value="&lt;div&gt;Payment&lt;/div&gt;" style="swimlane;fontStyle=1;align=center;verticalAlign=top;childLayout=stackLayout;horizontal=1;startSize=26;horizontalStack=0;resizeParent=1;resizeParentMax=0;resizeLast=0;collapsible=1;marginBottom=0;whiteSpace=wrap;html=1;" vertex="1" parent="1">
          <mxGeometry x="360" y="600" width="160" height="86" as="geometry" />
        </mxCell>
        <mxCell id="N2E3WRwGkXzcVlvkMz1M-44" value="+ field: type" style="text;strokeColor=none;fillColor=none;align=left;verticalAlign=top;spacingLeft=4;spacingRight=4;overflow=hidden;rotatable=0;points=[[0,0.5],[1,0.5]];portConstraint=eastwest;whiteSpace=wrap;html=1;" vertex="1" parent="N2E3WRwGkXzcVlvkMz1M-43">
          <mxGeometry y="26" width="160" height="26" as="geometry" />
        </mxCell>
        <mxCell id="N2E3WRwGkXzcVlvkMz1M-45" value="" style="line;strokeWidth=1;fillColor=none;align=left;verticalAlign=middle;spacingTop=-1;spacingLeft=3;spacingRight=3;rotatable=0;labelPosition=right;points=[];portConstraint=eastwest;strokeColor=inherit;" vertex="1" parent="N2E3WRwGkXzcVlvkMz1M-43">
          <mxGeometry y="52" width="160" height="8" as="geometry" />
        </mxCell>
        <mxCell id="N2E3WRwGkXzcVlvkMz1M-46" value="+ method(type): type" style="text;strokeColor=none;fillColor=none;align=left;verticalAlign=top;spacingLeft=4;spacingRight=4;overflow=hidden;rotatable=0;points=[[0,0.5],[1,0.5]];portConstraint=eastwest;whiteSpace=wrap;html=1;" vertex="1" parent="N2E3WRwGkXzcVlvkMz1M-43">
          <mxGeometry y="60" width="160" height="26" as="geometry" />
        </mxCell>
        <mxCell id="N2E3WRwGkXzcVlvkMz1M-50" style="edgeStyle=orthogonalEdgeStyle;rounded=0;orthogonalLoop=1;jettySize=auto;html=1;entryX=0.658;entryY=0.027;entryDx=0;entryDy=0;entryPerimeter=0;endArrow=diamondThin;endFill=0;" edge="1" parent="1" source="N2E3WRwGkXzcVlvkMz1M-5" target="N2E3WRwGkXzcVlvkMz1M-22">
          <mxGeometry relative="1" as="geometry">
            <Array as="points">
              <mxPoint x="320" y="430" />
              <mxPoint x="5" y="430" />
            </Array>
          </mxGeometry>
        </mxCell>
        <mxCell id="N2E3WRwGkXzcVlvkMz1M-52" value="1..*" style="edgeLabel;html=1;align=center;verticalAlign=middle;resizable=0;points=[];" vertex="1" connectable="0" parent="N2E3WRwGkXzcVlvkMz1M-50">
          <mxGeometry x="0.9337" relative="1" as="geometry">
            <mxPoint as="offset" />
          </mxGeometry>
        </mxCell>
        <mxCell id="N2E3WRwGkXzcVlvkMz1M-54" style="edgeStyle=orthogonalEdgeStyle;rounded=0;orthogonalLoop=1;jettySize=auto;html=1;entryX=0.442;entryY=1.013;entryDx=0;entryDy=0;entryPerimeter=0;endArrow=diamondThin;endFill=1;" edge="1" parent="1" source="N2E3WRwGkXzcVlvkMz1M-43" target="N2E3WRwGkXzcVlvkMz1M-42">
          <mxGeometry relative="1" as="geometry" />
        </mxCell>
        <mxCell id="N2E3WRwGkXzcVlvkMz1M-55" style="edgeStyle=orthogonalEdgeStyle;rounded=0;orthogonalLoop=1;jettySize=auto;html=1;entryX=0.5;entryY=1;entryDx=0;entryDy=0;endArrow=diamondThin;endFill=0;" edge="1" parent="1" source="N2E3WRwGkXzcVlvkMz1M-10" target="N2E3WRwGkXzcVlvkMz1M-26">
          <mxGeometry relative="1" as="geometry">
            <Array as="points">
              <mxPoint x="-25" y="289" />
              <mxPoint x="-25" y="360" />
              <mxPoint x="-170" y="360" />
            </Array>
          </mxGeometry>
        </mxCell>
        <mxCell id="N2E3WRwGkXzcVlvkMz1M-56" value="*..1" style="edgeLabel;html=1;align=center;verticalAlign=middle;resizable=0;points=[];" vertex="1" connectable="0" parent="N2E3WRwGkXzcVlvkMz1M-55">
          <mxGeometry x="0.8974" y="2" relative="1" as="geometry">
            <mxPoint as="offset" />
          </mxGeometry>
        </mxCell>
        <mxCell id="N2E3WRwGkXzcVlvkMz1M-57" style="edgeStyle=orthogonalEdgeStyle;rounded=0;orthogonalLoop=1;jettySize=auto;html=1;entryX=0.762;entryY=1.167;entryDx=0;entryDy=0;entryPerimeter=0;endArrow=diamondThin;endFill=1;" edge="1" parent="1" source="N2E3WRwGkXzcVlvkMz1M-39" target="N2E3WRwGkXzcVlvkMz1M-12">
          <mxGeometry relative="1" as="geometry">
            <Array as="points">
              <mxPoint x="450" y="400" />
              <mxPoint x="162" y="400" />
            </Array>
          </mxGeometry>
        </mxCell>
        <mxCell id="N2E3WRwGkXzcVlvkMz1M-58" value="1..1" style="edgeLabel;html=1;align=center;verticalAlign=middle;resizable=0;points=[];" vertex="1" connectable="0" parent="N2E3WRwGkXzcVlvkMz1M-57">
          <mxGeometry x="0.9028" relative="1" as="geometry">
            <mxPoint as="offset" />
          </mxGeometry>
        </mxCell>
        <mxCell id="N2E3WRwGkXzcVlvkMz1M-59" style="edgeStyle=orthogonalEdgeStyle;rounded=0;orthogonalLoop=1;jettySize=auto;html=1;entryX=0;entryY=0.5;entryDx=0;entryDy=0;endArrow=diamondThin;endFill=0;" edge="1" parent="1" source="N2E3WRwGkXzcVlvkMz1M-10" target="N2E3WRwGkXzcVlvkMz1M-6">
          <mxGeometry relative="1" as="geometry" />
        </mxCell>
        <mxCell id="N2E3WRwGkXzcVlvkMz1M-60" value="1..1" style="edgeLabel;html=1;align=center;verticalAlign=middle;resizable=0;points=[];" vertex="1" connectable="0" parent="N2E3WRwGkXzcVlvkMz1M-59">
          <mxGeometry x="0.4083" relative="1" as="geometry">
            <mxPoint as="offset" />
          </mxGeometry>
        </mxCell>
      </root>
    </mxGraphModel>
  </diagram>
</mxfile>
